<?xml version="1.0" encoding="UTF-8" standalone="no"?>
<!DOCTYPE svg PUBLIC "-//W3C//DTD SVG 1.1//EN" "http://www.w3.org/Graphics/SVG/1.1/DTD/svg11.dtd">
<svg width="100%" height="100%" viewBox="0 0 440 50" version="1.1" xmlns="http://www.w3.org/2000/svg" xmlns:xlink="http://www.w3.org/1999/xlink" xml:space="preserve" xmlns:serif="http://www.serif.com/" style="fill-rule:evenodd;clip-rule:evenodd;stroke-linejoin:round;stroke-miterlimit:2;">
    <g transform="matrix(1,0,0,1,-229.696,-90.3967)">
        <g transform="matrix(64,0,0,64,221.952,137.797)">
            <path d="M0.186,-0.7L0.186,-0L0.325,-0C0.374,-0 0.413,-0.039 0.414,-0.088L0.414,-0.612C0.413,-0.661 0.374,-0.7 0.325,-0.7L0.186,-0.7ZM0.343,-0.108C0.343,-0.081 0.325,-0.071 0.305,-0.071L0.258,-0.071L0.258,-0.628L0.305,-0.628C0.325,-0.628 0.343,-0.618 0.343,-0.592L0.343,-0.108Z" style="fill:rgb(80,80,80);fill-rule:nonzero;"/>
        </g>
        <g transform="matrix(64,0,0,64,247.552,137.797)">
            <path d="M0.422,-0L0.343,-0L0.28,-0.482L0.217,-0L0.138,-0L0.244,-0.7L0.283,-0.7C0.313,-0.7 0.318,-0.681 0.321,-0.662L0.422,-0Z" style="fill:rgb(80,80,80);fill-rule:nonzero;"/>
        </g>
        <g transform="matrix(64,0,0,64,270.592,137.797)">
            <path d="M0.441,-0.7L0.155,-0.7C0.143,-0.7 0.133,-0.69 0.133,-0.678L0.133,-0.629L0.234,-0.629L0.234,-0.015C0.234,-0.01 0.237,-0 0.254,-0L0.305,-0L0.305,-0.612C0.306,-0.621 0.313,-0.629 0.323,-0.629L0.379,-0.629C0.402,-0.629 0.413,-0.639 0.417,-0.648L0.441,-0.7Z" style="fill:rgb(80,80,80);fill-rule:nonzero;"/>
        </g>
        <g transform="matrix(64,0,0,64,292.992,137.797)">
            <path d="M0.422,-0L0.343,-0L0.28,-0.482L0.217,-0L0.138,-0L0.244,-0.7L0.283,-0.7C0.313,-0.7 0.318,-0.681 0.321,-0.662L0.422,-0Z" style="fill:rgb(80,80,80);fill-rule:nonzero;"/>
        </g>
        <g transform="matrix(64,0,0,64,316.032,137.797)">
            <path d="M0.368,-0.35C0.41,-0.363 0.409,-0.407 0.409,-0.407L0.409,-0.612C0.408,-0.661 0.369,-0.7 0.32,-0.7L0.19,-0.7L0.19,-0L0.32,-0C0.369,-0 0.408,-0.039 0.409,-0.088L0.409,-0.293C0.409,-0.293 0.41,-0.337 0.368,-0.35ZM0.337,-0.424C0.337,-0.392 0.319,-0.383 0.3,-0.383L0.261,-0.383L0.261,-0.628L0.3,-0.628C0.319,-0.628 0.337,-0.618 0.337,-0.592L0.337,-0.424ZM0.337,-0.108C0.337,-0.081 0.319,-0.071 0.3,-0.071L0.261,-0.071L0.261,-0.317L0.3,-0.317C0.319,-0.317 0.337,-0.308 0.337,-0.277L0.337,-0.108Z" style="fill:rgb(80,80,80);fill-rule:nonzero;"/>
        </g>
        <g transform="matrix(64,0,0,64,341.632,137.797)">
            <path d="M0.422,-0L0.343,-0L0.28,-0.482L0.217,-0L0.138,-0L0.244,-0.7L0.283,-0.7C0.313,-0.7 0.318,-0.681 0.321,-0.662L0.422,-0Z" style="fill:rgb(80,80,80);fill-rule:nonzero;"/>
        </g>
        <g transform="matrix(64,0,0,64,364.672,137.797)">
            <path d="M0.391,-0.548C0.4,-0.553 0.411,-0.564 0.411,-0.587L0.411,-0.614C0.411,-0.662 0.372,-0.706 0.324,-0.707L0.279,-0.707C0.229,-0.707 0.189,-0.663 0.189,-0.614L0.189,-0.542C0.189,-0.542 0.186,-0.495 0.221,-0.431L0.307,-0.27C0.307,-0.27 0.338,-0.216 0.338,-0.175L0.338,-0.095C0.338,-0.073 0.321,-0.056 0.3,-0.056C0.279,-0.056 0.262,-0.073 0.262,-0.094L0.262,-0.216C0.244,-0.208 0.215,-0.195 0.209,-0.193C0.2,-0.188 0.189,-0.177 0.189,-0.154L0.189,-0.082C0.19,-0.034 0.228,0.005 0.276,0.007L0.321,0.007C0.371,0.007 0.411,-0.033 0.411,-0.082L0.411,-0.171C0.411,-0.171 0.414,-0.218 0.379,-0.282L0.293,-0.444C0.293,-0.444 0.262,-0.497 0.262,-0.538L0.262,-0.605C0.262,-0.627 0.279,-0.644 0.3,-0.644C0.321,-0.644 0.338,-0.627 0.338,-0.605L0.338,-0.524C0.357,-0.532 0.385,-0.545 0.391,-0.548Z" style="fill:rgb(80,80,80);fill-rule:nonzero;"/>
        </g>
        <g transform="matrix(64,0,0,64,390.272,137.797)">
            <path d="M0.291,-0.071L0.291,-0.314C0.291,-0.323 0.299,-0.331 0.308,-0.331L0.338,-0.331C0.361,-0.331 0.371,-0.341 0.376,-0.35C0.379,-0.356 0.391,-0.385 0.399,-0.403L0.291,-0.403L0.291,-0.611C0.291,-0.621 0.298,-0.628 0.308,-0.628L0.366,-0.628C0.389,-0.628 0.4,-0.639 0.404,-0.648L0.428,-0.7L0.241,-0.7C0.229,-0.7 0.22,-0.691 0.219,-0.68L0.219,-0L0.379,-0C0.402,-0 0.413,-0.01 0.418,-0.019C0.421,-0.025 0.433,-0.053 0.441,-0.071L0.291,-0.071Z" style="fill:rgb(80,80,80);fill-rule:nonzero;"/>
        </g>
        <g transform="matrix(64,0,0,64,441.472,137.797)">
            <path d="M0.287,-0.7L0.287,-0.094C0.287,-0.073 0.27,-0.056 0.249,-0.056C0.228,-0.056 0.211,-0.073 0.211,-0.094L0.211,-0.157C0.193,-0.149 0.166,-0.137 0.161,-0.134C0.151,-0.13 0.141,-0.119 0.141,-0.096L0.141,-0.082C0.141,-0.033 0.179,0.007 0.228,0.007L0.273,0.007L0.273,0.006C0.321,0.005 0.359,-0.034 0.359,-0.082L0.359,-0.672C0.359,-0.684 0.352,-0.7 0.33,-0.7L0.287,-0.7Z" style="fill:rgb(80,80,80);fill-rule:nonzero;"/>
        </g>
        <g transform="matrix(64,0,0,64,463.872,137.797)">
            <path d="M0.415,-0.7L0.343,-0.7L0.343,-0.095C0.343,-0.074 0.326,-0.057 0.305,-0.057L0.294,-0.057C0.273,-0.057 0.257,-0.074 0.257,-0.095L0.257,-0.7L0.206,-0.7C0.195,-0.7 0.186,-0.691 0.185,-0.68L0.185,-0.082C0.185,-0.033 0.225,0.004 0.274,0.004L0.329,0.004L0.329,0.003C0.376,0.002 0.415,-0.034 0.415,-0.082L0.415,-0.7Z" style="fill:rgb(80,80,80);fill-rule:nonzero;"/>
        </g>
        <g transform="matrix(64,0,0,64,489.472,137.797)">
            <path d="M0.234,-0L0.151,-0L0.262,-0.371L0.168,-0.7L0.224,-0.7C0.227,-0.7 0.245,-0.7 0.252,-0.676L0.303,-0.49L0.351,-0.676C0.358,-0.7 0.376,-0.7 0.379,-0.7L0.435,-0.7L0.345,-0.37L0.449,-0L0.371,-0L0.306,-0.254L0.234,-0Z" style="fill:rgb(80,80,80);fill-rule:nonzero;"/>
        </g>
        <g transform="matrix(64,0,0,64,515.072,137.797)">
            <path d="M0.441,-0.7L0.155,-0.7C0.143,-0.7 0.133,-0.69 0.133,-0.678L0.133,-0.629L0.234,-0.629L0.234,-0.015C0.234,-0.01 0.237,-0 0.254,-0L0.305,-0L0.305,-0.612C0.306,-0.621 0.313,-0.629 0.323,-0.629L0.379,-0.629C0.402,-0.629 0.413,-0.639 0.417,-0.648L0.441,-0.7Z" style="fill:rgb(80,80,80);fill-rule:nonzero;"/>
        </g>
        <g transform="matrix(64,0,0,64,537.472,137.797)">
            <path d="M0.422,-0L0.343,-0L0.28,-0.482L0.217,-0L0.138,-0L0.244,-0.7L0.283,-0.7C0.313,-0.7 0.318,-0.681 0.321,-0.662L0.422,-0Z" style="fill:rgb(80,80,80);fill-rule:nonzero;"/>
        </g>
        <g transform="matrix(64,0,0,64,560.512,137.797)">
            <path d="M0.209,-0.7L0.209,-0.015C0.209,-0.01 0.212,-0 0.229,-0L0.28,-0L0.28,-0.314L0.323,-0.314C0.392,-0.314 0.425,-0.363 0.425,-0.431L0.425,-0.612C0.425,-0.661 0.382,-0.7 0.334,-0.7L0.209,-0.7ZM0.356,-0.415C0.354,-0.396 0.338,-0.381 0.318,-0.381L0.28,-0.381L0.28,-0.633L0.318,-0.633C0.338,-0.633 0.354,-0.618 0.356,-0.599L0.356,-0.415Z" style="fill:rgb(80,80,80);fill-rule:nonzero;"/>
        </g>
        <g transform="matrix(64,0,0,64,586.112,137.797)">
            <path d="M0.274,-0.707C0.224,-0.707 0.184,-0.667 0.184,-0.618L0.184,-0.081C0.185,-0.033 0.225,0.007 0.274,0.007L0.329,0.007C0.377,0.005 0.415,-0.033 0.416,-0.081L0.416,-0.618C0.416,-0.666 0.377,-0.705 0.329,-0.707L0.274,-0.707ZM0.294,-0.056C0.273,-0.057 0.256,-0.074 0.256,-0.095L0.256,-0.605C0.256,-0.626 0.273,-0.643 0.294,-0.644L0.305,-0.644C0.326,-0.644 0.343,-0.627 0.343,-0.605L0.343,-0.095C0.343,-0.073 0.326,-0.056 0.305,-0.056L0.294,-0.056Z" style="fill:rgb(80,80,80);fill-rule:nonzero;"/>
        </g>
        <g transform="matrix(64,0,0,64,611.712,137.797)">
            <path d="M0.391,-0.548C0.4,-0.553 0.411,-0.564 0.411,-0.587L0.411,-0.614C0.411,-0.662 0.372,-0.706 0.324,-0.707L0.279,-0.707C0.229,-0.707 0.189,-0.663 0.189,-0.614L0.189,-0.542C0.189,-0.542 0.186,-0.495 0.221,-0.431L0.307,-0.27C0.307,-0.27 0.338,-0.216 0.338,-0.175L0.338,-0.095C0.338,-0.073 0.321,-0.056 0.3,-0.056C0.279,-0.056 0.262,-0.073 0.262,-0.094L0.262,-0.216C0.244,-0.208 0.215,-0.195 0.209,-0.193C0.2,-0.188 0.189,-0.177 0.189,-0.154L0.189,-0.082C0.19,-0.034 0.228,0.005 0.276,0.007L0.321,0.007C0.371,0.007 0.411,-0.033 0.411,-0.082L0.411,-0.171C0.411,-0.171 0.414,-0.218 0.379,-0.282L0.293,-0.444C0.293,-0.444 0.262,-0.497 0.262,-0.538L0.262,-0.605C0.262,-0.627 0.279,-0.644 0.3,-0.644C0.321,-0.644 0.338,-0.627 0.338,-0.605L0.338,-0.524C0.357,-0.532 0.385,-0.545 0.391,-0.548Z" style="fill:rgb(80,80,80);fill-rule:nonzero;"/>
        </g>
        <g transform="matrix(64,0,0,64,637.312,137.797)">
            <path d="M0.291,-0.071L0.291,-0.314C0.291,-0.323 0.299,-0.331 0.308,-0.331L0.338,-0.331C0.361,-0.331 0.371,-0.341 0.376,-0.35C0.379,-0.356 0.391,-0.385 0.399,-0.403L0.291,-0.403L0.291,-0.611C0.291,-0.621 0.298,-0.628 0.308,-0.628L0.366,-0.628C0.389,-0.628 0.4,-0.639 0.404,-0.648L0.428,-0.7L0.241,-0.7C0.229,-0.7 0.22,-0.691 0.219,-0.68L0.219,-0L0.379,-0C0.402,-0 0.413,-0.01 0.418,-0.019C0.421,-0.025 0.433,-0.053 0.441,-0.071L0.291,-0.071Z" style="fill:rgb(80,80,80);fill-rule:nonzero;"/>
        </g>
    </g>
</svg>
